# xmcd CD database file
#
# Track frame offsets:
#	150
#	16560
#	33895
#	50551
#	64375
#	81741
#	100466
#	112010
#	129969
#	141348
#
# Disc length: 2061 seconds
#
# Revision: 0
# Processed by: cddbd v1.5.2PL0 Copyright (c) Steve Scherf et al.
# Submitted via: CDex 1.70beta2
#
DISCID=8b080b0a
DTITLE=Bobby Dale - Something We Can't Stop
DYEAR=2008
DGENRE=Country
TTITLE0=Better Than The Truth
TTITLE1=The Wrong My Mind Has Done
TTITLE2=Wanted Man
TTITLE3=Brunette
TTITLE4=The Price We Pay (these days for love)
TTITLE5=If Nothings Going On
TTITLE6=Something We Can't Stop
TTITLE7=Talking To Your Picture
TTITLE8=Texas fling
TTITLE9=I'm Not Leaving You
EXTD=YEAR: 2008
EXTT0=
EXTT1=
EXTT2=
EXTT3=
EXTT4=
EXTT5=
EXTT6=
EXTT7=
EXTT8=
EXTT9=
PLAYORDER=
